<svg width="435" height="219" viewBox="0 0 435 219" fill="none" xmlns="http://www.w3.org/2000/svg">
<path d="M28.6582 40.6374C24.7348 50.1901 31.0464 54.9664 31.0464 54.9664C31.0464 54.9664 29.6817 53.7723 32.411 48.4843C35.1403 43.1962 44.8635 35.52 43.6695 24.0909C38.7226 23.4086 33.9463 22.7263 29.5111 22.0439C30.5346 23.5792 33.4345 29.2084 28.6582 40.6374Z" fill="white"/>
<path d="M44.0112 64.6893C37.5291 71.1714 41.4525 75.7772 41.4525 75.7772C41.4525 75.7772 38.0408 69.9774 74.7161 53.772C102.862 41.3195 112.074 30.4022 114.803 25.967C110.027 26.3082 104.909 26.4788 99.28 26.6494C94.5037 39.7842 51.6874 57.1837 44.0112 64.6893Z" fill="white"/>
<path d="M52.3699 82.4299C44.8642 88.2298 48.7876 92.8355 48.7876 92.8355C52.1993 84.9887 58.5108 82.2594 100.815 64.007C146.702 44.2194 160.519 22.3849 163.59 16.2439C161.884 17.0968 159.666 17.9497 156.937 18.8026C139.196 48.8252 64.8224 72.8773 52.3699 82.4299Z" fill="white"/>
<path d="M68.4046 125.928C58.5108 133.775 58.852 142.134 58.852 142.134C58.852 142.134 62.6048 132.069 88.5334 117.058C119.579 99.6586 120.774 86.6943 120.774 86.6943C109.686 104.094 90.5804 108.188 68.4046 125.928Z" fill="white"/>
<path d="M77.7862 135.993C58.8515 148.275 59.5338 160.045 59.5338 160.045C63.6278 149.128 78.8097 141.11 87.1682 135.311C99.9619 126.27 112.756 114.841 114.803 104.435C112.073 111.258 96.7209 123.54 77.7862 135.993Z" fill="white"/>
<path d="M65.5042 165.333C57.9985 176.25 59.1926 184.779 59.1926 184.779C61.5808 170.621 74.8862 161.58 87.1682 151.004C99.4501 140.428 106.956 134.287 111.05 119.617C106.956 132.069 73.351 154.074 65.5042 165.333Z" fill="white"/>
<path d="M63.7984 214.973C63.7984 214.973 62.9455 197.914 75.0569 183.927C85.4624 171.986 104.568 154.928 108.832 134.969C100.985 152.028 83.0743 168.233 72.4981 179.833C59.0221 194.673 63.7984 214.973 63.7984 214.973Z" fill="white"/>
<path d="M92.2855 182.221C76.0802 203.032 77.1037 217.361 77.1037 217.361C80.6859 219.067 82.9035 217.19 82.9035 217.19C82.9035 217.19 84.7799 199.961 92.2855 189.215C111.05 162.604 108.491 150.322 108.491 150.322C108.491 150.322 108.32 161.41 92.2855 182.221Z" fill="white"/>
<path d="M84.0974 38.2489C46.0574 20.1671 32.9226 0.0383559 32.9226 0.0383559C29.1698 -0.302809 20.6406 1.74418 20.6406 1.74418C20.6406 1.74418 37.6989 21.02 70.4507 36.7136C73.0095 37.9077 76.4211 39.6135 80.174 41.6605C81.7092 40.637 83.2444 39.7841 84.7797 38.7606C84.6091 38.59 84.2679 38.4195 84.0974 38.2489Z" fill="white"/>
<path d="M121.625 84.4769C122.99 77.8242 121.284 68.9539 113.608 59.7424C112.414 60.4248 111.049 60.9365 109.685 61.6188C116.849 68.4421 121.967 76.2889 121.625 84.4769Z" fill="white"/>
<path d="M103.544 56.3308C105.079 55.6485 106.614 54.7956 108.149 54.1132C104.738 51.0428 100.644 47.8017 95.6969 44.7312C94.1616 45.7547 92.4558 46.6076 90.75 47.6311C95.0146 50.1898 99.4497 53.0897 103.544 56.3308Z" fill="white"/>
<path d="M80.8562 66.9068C82.7326 66.0539 84.7796 65.2009 86.8266 64.1774C82.0503 61.6187 77.1033 59.06 71.8153 56.5012C69.5977 57.5247 67.5507 58.3776 65.6743 59.4011C71.3035 61.9599 76.2504 64.5186 80.8562 66.9068Z" fill="white"/>
<path d="M0 11.1262C0 11.1262 7.50563 26.3081 27.2932 40.1253C27.805 38.7606 28.3167 37.3959 28.6579 36.2019C17.0583 29.208 8.18797 21.7023 0 11.1262Z" fill="white"/>
<path d="M114.29 92.494C114.632 92.1529 114.973 91.8117 115.314 91.4705C113.096 82.9414 105.079 75.4358 94.1616 68.4419C92.1146 69.2948 90.2382 70.1477 88.3618 71.0006C102.008 78.8474 110.538 85.8413 114.29 92.494Z" fill="white"/>
<path d="M36.1636 45.5842C39.4046 47.4606 42.8163 49.1665 46.5691 50.7017C49.9808 52.2369 53.2218 53.6016 56.2923 54.9663C57.9981 53.9428 59.8746 52.9193 61.751 51.8958C60.3863 51.384 59.0216 50.7017 57.8276 50.1899C50.8337 47.1195 44.6927 44.3901 39.0635 41.4902C38.2106 42.5137 37.5282 43.5372 36.8459 44.3901C36.6753 44.9019 36.3342 45.2431 36.1636 45.5842Z" fill="white"/>
<path d="M103.885 101.194C104.738 100.511 105.591 99.9996 106.444 99.3173C100.644 90.447 89.5563 82.4296 75.9097 76.4592C73.8627 77.3121 71.9863 78.3356 70.1099 79.018C83.7565 85.1589 95.8678 91.8117 103.885 101.194Z" fill="white"/>
<path d="M62.2628 75.4358C63.9686 74.5829 65.6745 73.9005 67.5509 73.0476C66.0156 72.5359 64.4804 72.0241 62.9452 71.5124C58.6806 70.1477 54.9278 68.783 51.5161 67.2478C50.322 67.9301 49.4691 68.6125 48.6162 69.2948C50.6632 70.3183 53.0514 71.5124 55.6101 72.5359C57.8277 73.5594 60.0452 74.4123 62.2628 75.4358Z" fill="white"/>
<path d="M43.3278 63.3245C35.8222 59.4011 32.0694 56.16 31.5576 55.8188C31.8988 56.16 34.2869 60.254 41.622 65.2009C41.9632 64.6891 42.4749 64.1774 42.9867 63.6656C43.1572 63.4951 43.1572 63.4951 43.3278 63.3245Z" fill="white"/>
<path d="M109.514 109.382C109.855 109.041 110.196 108.529 110.538 108.188C110.196 106.994 109.855 105.8 109.344 104.435C108.832 104.947 108.149 105.459 107.638 105.97C108.32 107.164 108.832 108.188 109.514 109.382Z" fill="white"/>
<path d="M106.273 124.734C106.614 124.222 106.955 123.711 107.296 123.199C107.126 122.346 106.955 121.322 106.614 120.469C106.102 120.981 105.591 121.664 104.908 122.175C105.42 123.028 105.932 123.881 106.273 124.734Z" fill="white"/>
<path d="M101.497 116.888C102.35 116.205 103.203 115.352 104.056 114.67C103.203 113.305 102.179 112.111 101.156 110.917C100.132 111.6 99.1086 112.282 97.9146 113.135C99.2792 114.329 100.303 115.694 101.497 116.888Z" fill="white"/>
<path d="M50.3218 82.2593C43.8396 79.7006 41.7927 75.9478 41.6221 75.9478C41.9632 76.9712 43.8396 80.3829 48.4454 83.9651C49.1277 83.4534 49.6395 82.7711 50.3218 82.2593Z" fill="white"/>
<path d="M92.2854 108.359C93.4794 107.676 94.8441 106.823 96.0382 106.141C92.1148 103.071 87.3385 100 81.3681 97.1002C70.2802 91.6415 62.7746 88.4005 57.3159 85.6711C56.1218 86.3535 55.0983 87.2064 54.416 87.8887C57.4865 89.7651 61.4099 91.8121 66.1862 94.0297C77.4447 98.9766 85.9738 103.582 92.2854 108.359Z" fill="white"/>
<path d="M104.567 139.916C104.738 139.746 104.738 139.575 104.908 139.405C104.738 138.722 104.396 137.869 104.055 137.016C103.885 137.187 103.714 137.528 103.543 137.699C103.885 138.552 104.226 139.234 104.567 139.916Z" fill="white"/>
<path d="M93.9912 122.858C92.4559 121.493 90.9207 119.958 89.0443 118.423C88.0208 118.934 87.1679 119.446 86.3149 120.128C88.3619 121.493 90.4089 123.028 92.1148 124.393C92.6265 123.881 93.3088 123.37 93.9912 122.858Z" fill="white"/>
<path d="M75.3975 109.894C57.9981 101.024 50.663 95.2237 49.4689 94.2002H49.2983C49.8101 95.5649 53.9041 102.218 79.3209 115.864C79.4915 115.864 79.4915 116.035 79.662 116.035C80.6855 115.352 81.709 114.67 82.9031 113.988C80.515 112.623 77.9562 111.258 75.3975 109.894Z" fill="white"/>
<path d="M99.6201 132.069C99.9613 131.728 100.473 131.216 100.814 130.875C100.132 130.022 99.4495 128.999 98.7672 127.975C98.2554 128.317 97.7437 128.828 97.2319 129.169C98.0848 130.193 98.9378 131.216 99.6201 132.069Z" fill="white"/>
<path d="M91.4321 193.309C95.1849 202.861 94.8438 209.173 94.8438 209.173C94.8438 209.173 96.8908 211.049 98.7672 209.173C98.7672 209.173 98.426 200.644 93.8203 189.726C93.8203 189.897 93.6497 189.897 93.6497 190.067C92.6262 191.091 92.1145 192.285 91.4321 193.309Z" fill="white"/>
<path d="M87.8496 185.803C88.5319 184.779 89.3848 183.756 90.0672 182.562C88.7025 180.003 86.9967 177.444 85.1203 174.885C84.2673 175.738 83.4144 176.762 82.5615 177.615C84.7791 180.515 86.4849 183.244 87.8496 185.803Z" fill="white"/>
<path d="M70.2795 157.998C68.5737 156.292 67.0384 154.587 65.5032 153.051C64.9914 153.734 64.3091 154.416 63.7974 155.098C64.8209 156.634 66.1855 158.51 67.7208 160.386C68.5737 159.533 69.4266 158.851 70.2795 157.998Z" fill="white"/>
<path d="M58.8512 142.645C58.8512 142.645 59.0218 142.645 58.8512 142.645C58.8512 143.669 58.6806 146.739 60.8982 150.321C61.2393 149.81 61.4099 149.469 61.7511 148.957C60.3864 146.91 59.3629 144.181 58.8512 142.645Z" fill="white"/>
<path d="M75.0563 168.403C76.0798 169.597 77.1033 170.621 78.1268 171.815C78.4679 171.474 78.6385 171.303 78.9797 170.962C79.4914 170.45 80.0032 169.768 80.6855 169.256C78.8091 167.039 76.9327 164.992 75.2269 163.115C74.374 163.968 73.3505 164.821 72.4976 165.674C73.1799 166.527 74.0328 167.55 75.0563 168.403Z" fill="white"/>
<path d="M71.6449 209.684C71.6449 209.684 73.6919 211.561 75.5683 210.025C75.5683 210.025 77.2741 200.643 72.839 189.214C71.9861 190.408 71.3037 191.603 70.792 192.797C73.6919 202.69 71.6449 209.684 71.6449 209.684Z" fill="white"/>
<path d="M67.0394 178.809C66.0159 177.615 65.3336 176.25 64.4807 175.056C63.969 175.738 63.6278 176.421 63.2866 177.103C64.1395 178.809 65.163 180.685 66.3571 182.732C66.6983 183.244 67.0394 183.756 67.21 184.438C67.7218 183.585 68.4041 182.732 68.9159 181.709C68.4041 180.856 67.7218 179.832 67.0394 178.809Z" fill="white"/>
<path d="M59.5327 160.386C59.3621 161.751 59.1915 165.845 60.7268 170.792C60.8973 170.28 61.2385 169.768 61.5797 169.086C60.215 165.503 59.7033 162.092 59.5327 160.386Z" fill="white"/>
<path d="M192.664 92.7261V135.493H179.31V92.7261H163.589V81.2314H208.385V92.7261H192.664Z" fill="white"/>
<path d="M234.924 135.493V130.084H234.755C232.896 133.465 228.501 136.676 222.922 136.676C212.442 136.676 208.723 128.563 208.723 120.618V96.4451H221.739V117.575C221.739 121.97 222.922 125.858 227.486 125.858C231.882 125.858 234.417 121.97 234.417 117.406V96.4451H247.264V135.493H234.924Z" fill="white"/>
<path d="M271.268 106.08V120.956C271.268 124.506 272.451 126.365 276.17 126.365C277.353 126.365 279.044 126.196 279.889 125.689L280.058 135.155C278.367 135.831 275.325 136.338 272.62 136.338C262.14 136.338 258.759 130.76 258.759 122.477V106.08H252.504V96.4452H258.759V86.1338H271.437V96.4452H280.565V106.08H271.268Z" fill="white"/>
<path d="M286.988 101.855C291.552 97.4597 297.976 95.2622 304.399 95.2622C317.415 95.2622 322.317 101.686 322.317 115.885V135.494H310.485V131.268H310.316C308.287 134.479 303.892 136.339 299.328 136.339C293.074 136.339 285.129 133.296 285.129 124.168C285.129 112.842 298.821 110.983 310.146 110.983V110.307C310.146 106.419 307.104 104.728 303.047 104.728C299.328 104.728 295.778 106.588 293.412 108.785L286.988 101.855ZM310.654 118.59H308.963C303.385 118.59 296.961 119.266 296.961 123.999C296.961 127.042 300.004 128.056 302.54 128.056C307.78 128.056 310.654 124.844 310.654 120.111V118.59Z" fill="white"/>
<path d="M346.152 106.08V120.956C346.152 124.506 347.335 126.365 351.054 126.365C352.237 126.365 353.927 126.196 354.773 125.689L354.942 135.155C353.251 135.831 350.208 136.338 347.504 136.338C337.023 136.338 333.643 130.76 333.643 122.477V106.08H327.388V96.4452H333.643V86.1338H346.321V96.4452H355.449V106.08H346.152Z" fill="white"/>
<path d="M381.65 136.846C369.817 136.846 360.013 128.732 360.013 115.885C360.013 103.038 369.817 95.2622 381.65 95.2622C393.483 95.2622 403.287 103.038 403.287 115.885C403.287 128.563 393.483 136.846 381.65 136.846ZM381.65 105.912C375.565 105.912 372.522 110.814 372.522 115.885C372.522 120.956 375.734 126.027 381.819 126.027C387.904 126.027 391.116 120.956 391.116 115.885C390.947 110.814 387.735 105.912 381.65 105.912Z" fill="white"/>
<path d="M433.377 106.926C432.193 106.588 431.179 106.588 430.165 106.588C423.234 106.588 421.037 112.166 421.037 115.378V135.494H408.19V96.4455H420.53V102.024H420.699C422.727 98.1359 426.446 95.2622 431.348 95.2622C432.362 95.2622 433.546 95.2622 434.053 95.6003L433.377 106.926Z" fill="white"/>
</svg>
